<svg width="218" height="218" viewBox="0 0 218 218" fill="none" xmlns="http://www.w3.org/2000/svg">
<path d="M217.989 109C217.989 113.864 217.668 118.74 217.039 123.512C205.296 123.432 194.172 122.139 183.689 119.644C182.613 119.392 181.56 119.129 180.495 118.843C179.591 118.614 178.699 118.362 177.806 118.099C177.394 117.985 176.993 117.87 176.581 117.733C175.963 117.561 175.345 117.378 174.727 117.172C174.498 117.103 174.258 117.035 174.041 116.955C173.32 116.737 172.61 116.497 171.9 116.245C170.642 115.821 169.383 115.375 168.147 114.906C167.151 114.528 166.155 114.139 165.171 113.739C164.232 113.361 163.317 112.972 162.39 112.56C162.275 112.514 162.161 112.468 162.047 112.411C161.211 112.045 160.387 111.678 159.563 111.289C159.483 111.255 159.403 111.209 159.323 111.175C158.968 104.686 157.377 98.517 154.791 92.9205C154.058 91.3411 153.257 89.7961 152.364 88.3197C149.629 83.696 146.173 79.553 142.144 76.0394C139.844 74.0252 137.349 72.2169 134.694 70.649C127.163 66.1626 118.373 63.599 108.977 63.599C99.5809 63.599 90.8142 66.1626 83.295 70.6261C80.6398 72.194 78.1334 74.0137 75.8216 76.028C71.793 79.553 68.3367 83.696 65.6014 88.3197C64.7087 89.7961 63.8961 91.3411 63.1751 92.9205C60.5886 98.517 58.9978 104.686 58.643 111.175C58.5743 111.209 58.4942 111.244 58.4141 111.278C57.716 111.61 57.0178 111.93 56.3197 112.228C55.942 112.399 55.5643 112.571 55.1867 112.731C54.3398 113.109 53.4814 113.464 52.6116 113.807C51.9249 114.093 51.2268 114.368 50.5286 114.631C48.5373 115.409 46.5115 116.119 44.4515 116.783C43.9479 116.955 43.4329 117.126 42.9179 117.275C42.3227 117.47 41.7391 117.653 41.1325 117.813C40.8693 117.904 40.606 117.973 40.3428 118.053C39.3929 118.328 38.443 118.591 37.4702 118.843C36.4172 119.129 35.3529 119.392 34.2885 119.644C23.8051 122.128 12.6922 123.432 0.961328 123.512C0.331865 118.728 0.0114136 113.864 0.0114136 109C0.0114136 90.8604 4.46343 73.739 12.3374 58.6777C14.2144 55.0841 16.2859 51.6163 18.5291 48.2744C31.1526 29.5279 49.4414 14.9015 70.9232 6.87868C72.5369 6.26066 74.1735 5.68842 75.8216 5.1734C86.2821 1.80864 97.4293 0.000366211 109 0.000366211C120.571 0.000366211 131.695 1.80864 142.144 5.16196C143.804 5.68842 145.44 6.24921 147.065 6.86723C168.536 14.89 186.824 29.5164 199.459 48.2515C201.703 51.5934 203.786 55.0726 205.663 58.6777C213.537 73.739 217.989 90.8604 217.989 109Z" fill="#349DFF"/>
<path d="M6.4993 146.287C35.5347 145.234 68.9878 137.188 98.5267 112.765C104.604 107.741 113.382 107.741 119.459 112.765C149.01 137.188 182.463 145.234 211.498 146.287C196.185 188.815 155.796 218 108.999 218C62.201 218 21.8124 188.815 6.4993 146.287Z" fill="#FAFEFF"/>
</svg>
